<svg id="Layer_1" data-name="Layer 1" xmlns="http://www.w3.org/2000/svg" viewBox="0 0 1000 1000"><defs><style>.cls-1{fill:#f8f1e4;}.cls-2,.cls-5{fill:#063831;}.cls-3{fill:#e5602f;}.cls-4{fill:#e2dacd;}.cls-5{font-size:89.2px;font-family:Poppins-Bold, Poppins Bold;font-weight:700;}</style></defs><circle class="cls-1" cx="309.84" cy="300.72" r="171.27" transform="translate(-5.84 595.3) rotate(-87.17)"/><path class="cls-2" d="M389.8,412.34s-76.9,40.42-159.92,0V307H389.8Z"/><polygon class="cls-1" points="454.52 265.68 454.52 218.14 317.7 236.49 340.14 294.83 454.52 265.68"/><polygon class="cls-3" points="165.15 265.68 209.46 251.02 364.02 288.81 309.84 302.55 165.15 265.68"/><polygon class="cls-3" points="245.83 201.27 300.67 189.42 454.52 218.12 400.35 231.85 245.83 201.27"/><polygon class="cls-3" points="209.57 229.56 245.83 220.22 400.28 255.83 346.11 269.56 209.57 229.56"/><polygon class="cls-4" points="454.52 320.76 309.84 358.12 309.84 302.55 454.52 265.68 454.52 320.76"/><polygon class="cls-2" points="165.15 320.76 309.84 358.12 309.84 302.55 165.15 265.68 165.15 320.76"/><polygon class="cls-4" points="454.52 337.8 309.84 375.16 309.84 319.59 454.52 282.72 454.52 337.8"/><polygon class="cls-2" points="165.15 337.8 309.84 375.16 309.84 319.59 165.15 282.72 165.15 337.8"/><polygon class="cls-2" points="245.83 220.22 400.28 255.83 400.28 231.91 245.83 201.27 245.83 220.22"/><polygon class="cls-2" points="209.57 251.18 364.02 288.81 364.02 264.89 209.57 229.56 209.57 251.18"/><polygon class="cls-2" points="180.66 411.04 196.39 411.04 196.39 288.27 180.66 292.2 180.66 411.04"/><path class="cls-2" d="M213.33,435.51c0,23.76-24.81,43-24.81,43s-24.8-19.27-24.8-43,24.8-43,24.8-43S213.33,411.74,213.33,435.51Z"/><text class="cls-5" transform="translate(17.31 580.78)">Booking Facility</text></svg>